<svg width="34" height="34" viewBox="0 0 34 34" fill="none" xmlns="http://www.w3.org/2000/svg">
<g clip-path="url(#clip0_2891_18754)">
<path d="M34.004 2.059L32.486 2.917V2.741L34.004 3.599L33.751 4.061L32.255 3.192L32.376 3.137V4.82H31.87L31.881 3.137L31.991 3.192L30.506 4.061L30.242 3.599L31.771 2.741V2.917L30.242 2.059L30.506 1.597L31.991 2.466L31.881 2.521L31.87 0.838H32.376V2.521L32.255 2.466L33.751 1.597L34.004 2.059Z" fill="#F8F4E8"/>
<path d="M4.56644 11.7026C2.152 13.1724 0.487667 16.4792 1.14402 18.4542C1.44876 19.3498 2.48017 20.3832 3.15997 20.498C3.67568 20.5669 3.67568 20.544 3.13653 19.0742C2.50361 17.3289 3.23029 14.3436 4.58988 13.0805L5.15247 12.5753V18.7527C5.12903 24.4939 4.96494 27.3414 4.56644 28.306C4.28515 28.9719 5.19936 28.8112 5.92604 28.0763C7.14498 26.8133 7.26219 26.0554 7.26219 18.7068C7.26219 12.0241 7.26219 11.9782 6.74648 11.6337C6.04324 11.1515 5.43377 11.1745 4.56644 11.7026Z" fill="#F8F4E8"/>
<path d="M27.5838 11.4258C27.4901 11.4947 27.4198 12.2295 27.4198 13.0333V14.48H26.1539C25.0053 14.48 24.8881 14.526 24.7474 15.0542C24.513 15.9268 24.7474 16.0876 26.0367 16.0876H27.2322L27.1385 19.004C27.0681 21.7598 27.0212 22.0124 26.3883 23.0688L25.7085 24.194L25.3335 23.0688C25.0522 22.2191 24.6302 21.6909 23.5519 20.7953L22.1455 19.6241L22.6612 18.7285C22.9659 18.2233 23.1769 17.5573 23.1534 17.2358C23.0831 16.7535 22.9425 16.6617 22.1924 16.5928C20.5515 16.455 19.3794 18.3151 20.1764 19.7848C20.3639 20.1523 20.2233 20.5886 19.356 22.1272C17.9964 24.5385 17.6916 24.9059 17.2228 24.7452C16.9181 24.6303 16.8712 24.0333 16.8712 21.0479V17.5114L16.2383 17.098C14.6208 16.0646 13.2144 17.075 11.972 20.1982L11.2687 21.9435V19.4863L11.2453 17.0521L10.5186 16.7995C10.1201 16.6617 9.69817 16.6157 9.58096 16.6846C9.25279 16.8683 9.32311 26.2838 9.65129 26.6053C10.0263 26.9727 11.2453 26.9498 11.3391 26.5823C11.3859 26.4445 11.6438 25.3882 11.9251 24.2399C12.4642 22.0583 13.4253 19.7848 14.2458 18.8433L14.738 18.2692L14.7615 21.7827C14.7615 25.9623 15.0193 26.8809 16.1445 26.8809C17.1994 26.8809 18.348 25.7556 19.8248 23.2754C20.528 22.1042 21.2078 21.1397 21.3016 21.1397C21.536 21.1397 22.8721 22.5406 23.1769 23.1377C23.5754 23.8955 23.4816 24.6992 22.9425 25.1815C22.4736 25.5948 22.4502 25.5948 21.5126 25.0667C20.6218 24.5614 20.5749 24.5614 20.1295 24.9518C19.0278 25.9393 20.1061 26.8809 22.333 26.8809C24.2786 26.8809 25.4507 26.146 26.6931 24.1481C26.9978 23.6199 27.2088 23.4592 27.2557 23.6888C27.326 23.8725 27.4901 24.4466 27.6307 24.9748C27.9355 26.0771 28.8262 26.8809 29.7873 26.8809C30.5843 26.8809 31.5538 26.1732 32.1081 25.216C32.2905 24.901 32.3718 24.8141 32.5476 24.3549C32.7234 23.8957 32.8992 22.977 32.9988 22.1731C32.9871 21.3408 32.8992 21.1686 32.7234 21.1686C32.6355 21.1686 32.3706 21.2547 32.3659 21.5072C32.319 24.0103 30.5609 26.2608 29.7639 24.8141C29.5998 24.5385 29.5529 22.8391 29.5763 20.2901L29.6467 16.2024L31.1 16.1335C32.2955 16.0876 32.5768 15.9957 32.694 15.6283C32.9284 14.8934 32.6237 14.7097 31.1469 14.7097H29.7639V13.24C29.7639 11.7932 29.7404 11.7702 29.0372 11.5176C28.1699 11.2191 27.7948 11.1961 27.5838 11.4258Z" fill="#F8F4E8"/>
</g>
<defs>
<clipPath id="clip0_2891_18754">
<rect width="34" height="34" fill="white"/>
</clipPath>
</defs>
</svg>
