<svg width="180" height="40" viewBox="0 0 180 40" fill="none" xmlns="http://www.w3.org/2000/svg">
<path fill-rule="evenodd" clip-rule="evenodd" d="M41.3085 19.9995C41.3085 30.5752 32.3603 39.1485 21.3222 39.1485C10.2841 39.1485 1.33594 30.5752 1.33594 19.9995C1.33594 9.42385 10.2841 0.850585 21.3222 0.850586C32.3603 0.850587 41.3085 9.42386 41.3085 19.9995ZM21.3222 38.4898C29.3042 38.4898 36.1544 33.847 39.0913 27.2262C38.1146 29.0457 36.7803 30.6262 35.1663 31.939C31.6096 34.832 26.7111 36.4129 21.3223 36.4129C15.9335 36.4129 11.035 34.832 7.47826 31.939C5.86401 30.626 4.52951 29.0453 3.55274 27.2256C6.48955 33.8466 13.3399 38.4898 21.3222 38.4898ZM17.2585 1.91991C15.6677 2.25341 14.1529 2.7809 12.7422 3.47516C11.7229 3.98691 10.7597 4.58699 9.86363 5.26478C9.27015 5.7204 8.7068 6.21063 8.1769 6.73228C4.98135 9.90121 3.01498 14.2182 3.01498 18.9757C3.01498 20.0611 3.11725 20.9714 3.30929 21.7342C3.36438 21.7779 3.42197 21.8089 3.48157 21.8292C3.62839 21.8793 3.80794 21.8721 4.02829 21.7994C4.47458 21.6522 5.03624 21.2545 5.70767 20.6736C6.36283 20.1068 7.10802 19.3791 7.93466 18.5717L7.98255 18.5249C9.67117 16.8757 11.6901 14.9097 13.934 13.3566C16.1772 11.804 18.659 10.6543 21.2747 10.6543C23.8903 10.6543 26.372 11.804 28.6152 13.3566C30.8591 14.9098 32.878 16.8758 34.5667 18.525L34.6144 18.5717C35.4411 19.3791 36.1863 20.1069 36.8415 20.6737C37.513 21.2546 38.0747 21.6524 38.5209 21.7995C38.7413 21.8722 38.9208 21.8795 39.0676 21.8294C39.1972 21.7851 39.3172 21.6908 39.4228 21.5244C39.5223 21.1245 39.5942 20.6684 39.6358 20.1495C39.6624 19.7906 39.6758 19.4142 39.6758 19.0196C39.6758 17.3352 39.4293 15.706 38.969 14.1635C38.0404 11.06 36.2443 8.30712 33.848 6.16057C30.784 3.49104 26.7887 1.78352 22.3835 1.53676C22.0322 1.51851 21.6783 1.50927 21.3222 1.50927C19.9282 1.50927 18.5686 1.65088 17.2585 1.91991ZM38.9919 22.2375C39.0615 22.1829 39.1278 22.1163 39.1903 22.036C39.177 22.0414 39.1637 22.0463 39.1501 22.0509C38.9332 22.125 38.6931 22.1051 38.441 22.0219C37.9423 21.8575 37.3478 21.4287 36.6769 20.8483C36.0161 20.2766 35.2664 19.5444 34.4428 18.74L34.3913 18.6897C32.7007 17.0385 30.6957 15.0869 28.4714 13.5474C26.2464 12.0073 23.8156 10.8896 21.2747 10.8896C18.7336 10.8896 16.3028 12.0073 14.0779 13.5473C11.8535 15.0868 9.84857 17.0384 8.1579 18.6896L8.1063 18.7399C7.28274 19.5443 6.53307 20.2765 5.8723 20.8482C5.20141 21.4285 4.60691 21.8573 4.10827 22.0218C3.86159 22.1032 3.6264 22.1239 3.41319 22.0555C3.43033 22.0902 3.44786 22.1239 3.46578 22.1567C3.49558 22.1861 3.52609 22.213 3.55728 22.2374C3.71432 22.3605 3.89548 22.428 4.10469 22.4468C4.53194 22.4849 5.07695 22.3195 5.74259 21.9887C6.40363 21.6603 7.16002 21.1812 8.00363 20.6203C8.29818 20.4245 8.60309 20.2188 8.91769 20.0067C10.3998 19.0071 12.0974 17.8622 13.9456 16.9095C16.1876 15.754 18.6656 14.8731 21.2747 14.8731C23.8837 14.8731 26.3616 15.754 28.6036 16.9097C30.4519 17.8623 32.1495 19.0072 33.6315 20.0068C33.9462 20.2189 34.251 20.4246 34.5455 20.6204C35.3892 21.1813 36.1456 21.6604 36.8066 21.989C37.4723 22.3196 38.0173 22.4851 38.4445 22.4469C38.6538 22.4282 38.8349 22.3608 38.9919 22.2375ZM38.799 22.6613C38.695 22.6962 38.5858 22.7182 38.4719 22.7284C37.9554 22.7745 37.3458 22.5754 36.6709 22.24C35.9913 21.9024 35.2213 21.4138 34.3775 20.8528C34.08 20.655 33.7732 20.448 33.4572 20.235C31.9753 19.2356 30.2951 18.1025 28.4638 17.1586C26.2435 16.0142 23.8153 15.156 21.2747 15.156C18.7338 15.156 16.3057 16.0142 14.0854 17.1586C12.2542 18.1024 10.5739 19.2355 9.09202 20.2348C8.77609 20.4479 8.46917 20.6549 8.17172 20.8526C7.32792 21.4136 6.55782 21.9022 5.87831 22.2398C5.2034 22.5751 4.59378 22.7744 4.07734 22.7283C4.0123 22.7225 3.94878 22.7128 3.88688 22.699C4.00839 22.807 4.13968 22.8917 4.27985 22.9567C4.70421 23.1534 5.23808 23.1814 5.88839 23.0726C6.53805 22.9639 7.285 22.7218 8.12231 22.3991C8.79113 22.1412 9.51072 21.8346 10.2785 21.5075L10.281 21.5064C10.4731 21.4245 10.6682 21.3414 10.8663 21.2574C11.8553 20.8381 12.9152 20.3993 14.0315 20.0008C16.2635 19.2042 18.7288 18.566 21.3223 18.566C23.916 18.566 26.3813 19.2042 28.6133 20.0008C29.7296 20.3993 30.7895 20.8381 31.7785 21.2574C31.9764 21.3414 32.1715 21.4244 32.3635 21.5063L32.3663 21.5075H32.3664L32.367 21.5077L32.3673 21.5078C33.1346 21.8348 33.8539 22.1413 34.5224 22.3991C35.3597 22.7218 36.1067 22.9639 36.7564 23.0726C37.4067 23.1814 37.9406 23.1534 38.3649 22.9567C38.5211 22.8843 38.6662 22.7873 38.799 22.6613ZM4.13036 23.2529C4.03047 23.2066 3.93539 23.1525 3.84512 23.0906C3.97323 23.2509 4.11257 23.3897 4.26227 23.5093C5.13426 24.2056 6.41944 24.2984 8.09498 24.0728C9.23774 23.9188 10.5255 23.623 11.9411 23.2977C12.5976 23.1469 13.2817 22.9897 13.9916 22.8375C16.2219 22.3591 18.6849 21.935 21.2747 21.935C23.8643 21.935 26.3274 22.3591 28.5576 22.8375C29.2676 22.9897 29.9516 23.1469 30.6082 23.2977C32.0239 23.623 33.3115 23.9188 34.4543 24.0728C36.1298 24.2984 37.415 24.2056 38.287 23.5093C38.3988 23.42 38.5047 23.3199 38.6046 23.2083C38.575 23.2239 38.5449 23.2388 38.5144 23.2529C37.9987 23.4919 37.3823 23.5113 36.6973 23.3966C36.0115 23.2819 35.2379 23.0295 34.3943 22.7042C33.7194 22.4441 32.9927 22.1344 32.2245 21.8071L32.224 21.8069L32.2238 21.8068C32.0317 21.7249 31.8368 21.6419 31.6395 21.5582C30.6519 21.1396 29.5997 20.7041 28.4935 20.3092C26.2804 19.5193 23.8586 18.895 21.3223 18.895C18.7862 18.895 16.3644 19.5193 14.1513 20.3092C13.0451 20.7041 11.9929 21.1396 11.0052 21.5582C10.808 21.6419 10.6131 21.7249 10.4209 21.8068C9.65246 22.1342 8.92559 22.444 8.25046 22.7042C7.40687 23.0295 6.63322 23.2819 5.94747 23.3966C5.26239 23.5113 4.64607 23.4919 4.13036 23.2529ZM38.3022 23.9689C37.3092 24.6137 35.9618 24.6559 34.3995 24.4454C33.2378 24.2889 31.9199 23.9862 30.4934 23.6585L30.4928 23.6584L30.4925 23.6583C29.8401 23.5085 29.165 23.3535 28.4716 23.2047C26.2514 22.7285 23.8212 22.3114 21.2747 22.3114C18.728 22.3114 16.2979 22.7285 14.0776 23.2047C13.3848 23.3534 12.7086 23.5086 12.0567 23.6583C10.6299 23.9861 9.31163 24.2889 8.1498 24.4454C6.79552 24.6279 5.60279 24.6204 4.66242 24.1954C5.5367 25.0068 6.74659 25.3939 8.25571 25.532C9.9124 25.6837 11.8927 25.5324 14.1193 25.3399C14.2836 25.3257 14.4493 25.3113 14.6161 25.2968C16.7028 25.1149 18.9838 24.9162 21.3698 24.9162C23.7558 24.9162 26.0367 25.1149 28.1234 25.2968L28.1257 25.2969C28.2918 25.3114 28.4566 25.3257 28.6202 25.3399C30.8468 25.5324 32.8272 25.6837 34.4838 25.532C36.127 25.3816 37.4154 24.936 38.3022 23.9689ZM34.401 26.9542C35.8333 26.5286 37.0102 25.8808 37.8858 24.9001C36.9765 25.5291 35.8338 25.8343 34.5258 25.954C32.8209 26.1101 30.7985 25.9539 28.5805 25.7621C28.4174 25.748 28.2531 25.7337 28.0878 25.7192L28.0862 25.7191C25.9967 25.5371 23.7348 25.3401 21.3698 25.3401C19.0047 25.3401 16.7427 25.5371 14.6533 25.7191L14.6449 25.7199L14.6431 25.72C14.4807 25.7342 14.3193 25.7482 14.1591 25.7621C11.941 25.9539 9.91858 26.1101 8.21374 25.954C6.77664 25.8224 5.53916 25.4669 4.59142 24.7043C5.48201 25.7954 6.71791 26.5009 8.2433 26.9542C9.8941 27.4448 11.8715 27.6363 14.0904 27.7033C15.5927 27.7486 17.1933 27.7368 18.8696 27.7244C19.6707 27.7184 20.489 27.7124 21.3222 27.7124C22.1554 27.7124 22.9737 27.7184 23.7747 27.7244H23.775C25.4513 27.7368 27.0518 27.7486 28.5541 27.7033C30.7728 27.6363 32.7503 27.4448 34.401 26.9542ZM4.39966 25.2215C5.31222 26.6106 6.59545 27.6441 8.17612 28.4083C11.5093 30.0199 16.1423 30.4244 21.3223 30.4244C26.5025 30.4244 31.1354 30.0199 34.4685 28.4083C36.0498 27.6439 37.3333 26.61 38.246 25.2201C37.2978 26.2759 36.0365 26.9608 34.5462 27.4037C32.8312 27.9134 30.8009 28.1063 28.5695 28.1737C27.0574 28.2192 25.4406 28.2073 23.7585 28.1949H23.7565C22.9584 28.189 22.1454 28.183 21.3222 28.183C20.4989 28.183 19.6861 28.189 18.8878 28.1949H18.8859C17.2038 28.2073 15.5869 28.2192 14.0748 28.1737C11.8434 28.1063 9.81306 27.9134 8.09814 27.4037C6.60854 26.9611 5.3477 26.2766 4.39966 25.2215ZM7.93229 28.8703C6.31195 28.0869 4.97021 27.022 4.00178 25.5869C4.94197 27.3725 6.31743 28.8039 8.02171 29.9196C11.3884 32.1238 16.066 33.1132 21.2747 33.1132C26.4833 33.1132 31.1609 32.1238 34.5275 29.9196C36.0499 28.923 37.3099 27.6745 38.2316 26.1468C37.3081 27.3038 36.1145 28.1923 34.7124 28.8703C31.2543 30.5422 26.5053 30.9418 21.3223 30.9418C16.1394 30.9418 11.3903 30.5422 7.93229 28.8703ZM7.89137 31.4723C6.30463 30.1817 4.99816 28.6219 4.05364 26.8194C4.99168 28.2424 6.22321 29.4256 7.68897 30.3852C11.1909 32.6779 16.0022 33.6773 21.2747 33.6773C26.5471 33.6773 31.3584 32.6779 34.8603 30.3852C36.5961 29.2487 38.0034 27.7987 38.9839 26.0082C38.0246 28.1572 36.5733 29.9918 34.7532 31.4723C31.3297 34.2569 26.585 35.8008 21.3223 35.8008C16.0597 35.8008 11.3149 34.2569 7.89137 31.4723Z" fill="#182126"/>
<path d="M141.823 14.0977L148.037 20.1804L153.579 14.0977H157.893L147.245 25.7888H142.931L145.741 22.7052L136.875 14.0977H141.823Z" fill="#182126"/>
<path d="M161.404 16.9103V25.7888H157.891V14.0977H163.831L168.288 22.8406L172.709 14.0977H178.723V25.7888H174.828V16.8934L170.336 25.7888H165.933L161.404 16.9103Z" fill="#182126"/>
<path fill-rule="evenodd" clip-rule="evenodd" d="M116.039 14.0977V25.7888H120.014V22.5769H132.348C134.846 22.5769 136.871 20.6787 136.871 18.3374C136.871 15.9958 134.846 14.0977 132.348 14.0977H116.039ZM120.014 20.1359H130.978C132.038 20.1359 132.897 19.3306 132.897 18.3374C132.897 17.344 132.038 16.5387 130.978 16.5387H120.014V20.1359Z" fill="#182126"/>
<path d="M76.1227 14.0977L82.2821 20.1804L87.7745 14.0977H92.0508L81.4975 25.7888H77.2212L80.0067 22.7052L71.2188 14.0977H76.1227Z" fill="#182126"/>
<path d="M52.9752 16.9103V25.7888H49.4609V14.0977H55.4025L59.8589 22.8406L64.2789 14.0977H70.293V25.7888H66.3983V16.8934L61.9059 25.7888H57.504L52.9752 16.9103Z" fill="#182126"/>
<path d="M98.4276 19.1036V20.7829H103.55C104.835 20.7829 105.795 20.8859 106.429 21.092C107.063 21.2876 107.38 21.5966 107.38 22.0189C107.38 22.4825 106.908 22.843 105.965 23.1004C105.022 23.3477 103.64 23.4712 101.818 23.4712C100.387 23.4712 99.1757 23.3477 98.1837 23.1004C97.1916 22.843 96.4842 22.4773 96.0615 22.0035L91.3047 22.5287C92.6707 24.7021 96.2404 25.7888 102.013 25.7888C104.095 25.7888 105.892 25.6447 107.404 25.3563C108.933 25.0678 110.104 24.6506 110.917 24.1048C111.73 23.5485 112.137 22.8945 112.137 22.1426C112.137 21.4731 111.803 20.922 111.137 20.4892C110.826 20.2779 110.447 20.0959 110 19.9433C110.447 19.7906 110.826 19.6086 111.137 19.3973C111.803 18.9645 112.137 18.4134 112.137 17.7439C112.137 16.992 111.73 16.338 110.917 15.7817C110.104 15.2359 108.933 14.8187 107.404 14.5302C105.892 14.2418 104.095 14.0977 102.013 14.0977C96.2404 14.0977 92.6707 15.1844 91.3047 17.3578L96.0615 17.883C96.4842 17.4092 97.1916 17.0435 98.1837 16.7861C99.1757 16.5388 100.387 16.4153 101.818 16.4153C103.64 16.4153 105.022 16.5388 105.965 16.7861C106.908 17.0435 107.38 17.404 107.38 17.8676C107.38 18.2899 107.063 18.5989 106.429 18.7945C105.795 19.0006 104.835 19.1036 103.55 19.1036H98.4276Z" fill="#182126"/>
</svg>
