<svg width="190" height="35" viewBox="0 0 190 35" fill="none" xmlns="http://www.w3.org/2000/svg">
<g clip-path="url(#clip0_2891_18726)">
<path fill-rule="evenodd" clip-rule="evenodd" d="M188.351 12.142C182.171 10.6109 177.18 13.5874 177.18 20.6813V32.5342H181.22L181.335 20.7242C181.383 15.7772 185.668 15.1255 189.019 16.351L190.001 12.6922L188.351 12.142Z" fill="#F8F4E8"/>
<path fill-rule="evenodd" clip-rule="evenodd" d="M69.1406 21.4699V32.5326H73.3703V21.5511C73.3703 17.5394 75.9506 15.3917 79.4189 15.3917C82.8872 15.3917 85.4674 17.5398 85.4674 21.5511V32.5326H89.6971V21.4699C89.6971 15.1079 85.3405 11.4609 79.4189 11.4609C73.4973 11.4609 69.1406 15.1085 69.1406 21.4699Z" fill="#F8F4E8"/>
<path fill-rule="evenodd" clip-rule="evenodd" d="M161.302 11.8223C167.005 11.8223 171.628 16.4586 171.628 22.1778C171.628 27.8972 167.005 32.5336 161.302 32.5336C155.599 32.5336 150.977 27.8972 150.977 22.1778C150.977 16.4586 155.599 11.8223 161.302 11.8223ZM161.302 15.0251C165.241 15.0251 168.434 18.2274 168.434 22.1778C168.434 26.1284 165.241 29.3307 161.302 29.3307C157.363 29.3307 154.17 26.1284 154.17 22.1778C154.17 18.2274 157.363 15.0251 161.302 15.0251Z" fill="#F8F4E8"/>
<path fill-rule="evenodd" clip-rule="evenodd" d="M105.451 11.8223C111.154 11.8223 115.777 16.4586 115.777 22.1778C115.777 27.8972 111.154 32.5336 105.451 32.5336C99.7479 32.5336 95.125 27.8972 95.125 22.1778C95.125 16.4586 99.7479 11.8223 105.451 11.8223ZM105.451 15.0251C109.39 15.0251 112.583 18.2274 112.583 22.1778C112.583 26.1284 109.39 29.3307 105.451 29.3307C101.512 29.3307 98.3186 26.1284 98.3186 22.1778C98.3186 18.2274 101.512 15.0251 105.451 15.0251Z" fill="#F8F4E8"/>
<path fill-rule="evenodd" clip-rule="evenodd" d="M45.7423 32.4786H49.7828V23.549H52.3764C52.529 23.8135 52.7463 24.1207 53.0557 24.4956L59.6893 32.5336L64.6397 32.4785L56.2031 23.0869C55.8592 22.704 55.6778 22.4384 55.6778 22.1548C55.6778 21.8306 55.8512 21.5179 56.2031 21.1418L64.9348 11.8121L60.1043 11.866L53.5177 19.2119C53.0192 19.7678 52.6787 20.1735 52.4501 20.5169H49.7827V2.22266H45.7422V32.4784L45.7423 32.4786Z" fill="#F8F4E8"/>
<path fill-rule="evenodd" clip-rule="evenodd" d="M134.627 31.6251L134.618 27.97C133.204 28.7526 131.815 29.1633 130.804 29.1633C127.814 29.1633 126.629 27.1075 126.63 24.433L126.633 14.9504L134.501 14.9011V11.6991H126.535V2.28516H122.59V11.6991H118.445V14.9011H122.59V24.7571C122.59 29.903 125.807 32.5341 130.534 32.5341C131.908 32.5341 132.988 32.2076 134.627 31.625V31.6251Z" fill="#F8F4E8"/>
<path fill-rule="evenodd" clip-rule="evenodd" d="M141.023 2.27734V32.5331H145.064V2.27734H141.023Z" fill="#F8F4E8"/>
<path fill-rule="evenodd" clip-rule="evenodd" d="M17.4495 35.0001C27.0864 35.0001 34.899 27.165 34.899 17.5C34.899 7.83511 27.0865 0 17.4495 0C7.81248 0 0 7.83501 0 17.5C0 22.5058 2.09606 27.0202 5.45578 30.2099C4.39137 13.7782 19.1385 4.84566 32.2878 10.9294L29.1047 17.0772C22.1226 13.8012 12.2852 16.9634 12.6311 30.5452L12.6325 34.3241C14.1624 34.764 15.7784 35 17.4495 35V35.0001ZM5.57923 8.32834H15.7703C11.3576 10.2475 7.87077 13.3566 5.57923 18.0016V8.32834Z" fill="#F8F4E8"/>
</g>
<defs>
<clipPath id="clip0_2891_18726">
<rect width="190" height="35" fill="white"/>
</clipPath>
</defs>
</svg>
