<svg width="24" height="24" viewBox="0 0 24 24" fill="none" xmlns="http://www.w3.org/2000/svg">
<path d="M1.33216 12.3728C3.58282 11.1481 6.09517 10.1259 8.44254 9.09851C12.4811 7.41563 16.5357 5.76207 20.6311 4.22252C21.4278 3.96021 22.8596 3.70367 23 4.87024C22.9231 6.52155 22.6068 8.16315 22.39 9.80475C21.8394 13.4147 21.2031 17.0123 20.5825 20.6104C20.3688 21.809 18.849 22.4294 17.8765 21.6624C15.5395 20.1029 13.1847 18.5587 10.8774 16.9631C10.1217 16.2044 10.8225 15.1149 11.4974 14.5732C13.4223 12.6993 15.4636 11.1071 17.2878 9.13631C17.7799 7.96232 16.326 8.95168 15.8464 9.25485C13.2113 11.0488 10.6407 12.9522 7.86247 14.5289C6.44342 15.3005 4.78942 14.641 3.37096 14.2104C2.09912 13.6902 0.235551 13.1661 1.33216 12.3728Z" fill="white"/>
</svg>
