<svg width="24" height="24" viewBox="0 0 24 24" fill="none" xmlns="http://www.w3.org/2000/svg">
<path fill-rule="evenodd" clip-rule="evenodd" d="M2.10049 21.4892C2.01833 21.7886 2.28996 22.0649 2.58927 21.9865L7.21607 20.7733C8.67658 21.5674 10.3209 21.9893 11.9951 21.9893H12C17.5092 21.9893 22 17.507 22 11.9972C22 9.32666 20.9617 6.81492 19.074 4.92862C17.1863 3.04241 14.6776 2 11.9999 2C6.49085 2 2 6.48234 2 11.9923C1.99937 13.7451 2.46023 15.4672 3.3363 16.9858L2.10049 21.4892ZM8.8306 7.21205C9.01433 7.21699 9.21803 7.22697 9.41182 7.65884C9.54034 7.94635 9.75683 8.47563 9.93318 8.90679C10.0704 9.24229 10.1833 9.51838 10.2116 9.57489C10.2762 9.70393 10.3159 9.85284 10.2315 10.0265C10.2215 10.047 10.2121 10.0666 10.2031 10.0855C10.1353 10.2266 10.0871 10.3271 9.9732 10.4584C9.92634 10.5124 9.87754 10.5716 9.82893 10.6306C9.74343 10.7343 9.65848 10.8373 9.58566 10.9101C9.45652 11.0391 9.32235 11.1782 9.47136 11.4363C9.62047 11.6944 10.1421 12.5433 10.9121 13.2282C11.7399 13.9681 12.4598 14.2799 12.8236 14.4375C12.8943 14.4681 12.9514 14.4929 12.9935 14.5139C13.2518 14.643 13.4058 14.6231 13.5549 14.4494C13.7039 14.2756 14.2006 13.6948 14.3745 13.4367C14.5434 13.1786 14.7173 13.2183 14.9558 13.3076C15.1942 13.397 16.4659 14.0224 16.7242 14.1515C16.7753 14.177 16.823 14.2 16.8673 14.2213C17.0471 14.3078 17.1692 14.3666 17.221 14.4543C17.2856 14.5635 17.2856 15.0798 17.072 15.6854C16.8534 16.2909 15.8002 16.8717 15.3233 16.9164C15.2782 16.9207 15.2332 16.9261 15.187 16.9317C14.75 16.9848 14.1952 17.0522 12.2185 16.271C9.78289 15.3096 8.17511 12.9238 7.85005 12.4415C7.82438 12.4034 7.80672 12.3772 7.79727 12.3645L7.79178 12.3572C7.64389 12.1584 6.73913 10.9431 6.73913 9.6891C6.73913 8.48936 7.32782 7.86474 7.59634 7.57984C7.61337 7.56179 7.62909 7.5451 7.6433 7.52971C7.88171 7.27163 8.15996 7.20711 8.33381 7.20711C8.50774 7.20711 8.68157 7.20711 8.8306 7.21205Z" fill="white"/>
</svg>
